<svg width="20" height="18" viewBox="0 0 20 18" fill="none" xmlns="http://www.w3.org/2000/svg">
<path fill-rule="evenodd" clip-rule="evenodd" d="M7.80327 12.2527C8.42774 12.676 9.18882 12.932 9.99868 12.932C12.1453 12.932 13.8919 11.1697 13.8919 9.00381C13.8919 8.18667 13.6382 7.41876 13.2186 6.78867L12.1551 7.86178C12.3307 8.19652 12.4283 8.59032 12.4283 9.00381C12.4283 10.3526 11.3354 11.4552 9.99868 11.4552C9.58887 11.4552 9.19858 11.3568 8.86683 11.1796L7.80327 12.2527ZM16.4288 3.54964C17.8436 4.84919 19.0438 6.60161 19.9415 8.70846C20.0195 8.89552 20.0195 9.11211 19.9415 9.28932C17.8534 14.1922 14.1358 17.126 9.99868 17.126H9.98893C8.10575 17.126 6.30063 16.5058 4.71018 15.3736L2.81725 17.2835C2.67089 17.4312 2.4855 17.5001 2.30011 17.5001C2.11472 17.5001 1.91957 17.4312 1.78297 17.2835C1.53903 17.0374 1.5 16.6436 1.69515 16.3581L1.72442 16.3187L16.1556 1.75783C16.1751 1.73814 16.1946 1.71845 16.2044 1.69876L16.2044 1.69875C16.2239 1.67906 16.2434 1.65938 16.2532 1.63969L17.1704 0.714253C17.4631 0.428745 17.9217 0.428745 18.2046 0.714253C18.4974 0.99976 18.4974 1.47232 18.2046 1.75783L16.4288 3.54964ZM6.09836 9.00765C6.09836 9.26363 6.12764 9.5196 6.16667 9.75588L2.55643 13.3986C1.5807 12.2565 0.731804 10.8782 0.0585443 9.29316C-0.0195148 9.11595 -0.0195148 8.89936 0.0585443 8.7123C2.14662 3.80945 5.86419 0.885459 9.99156 0.885459H10.0013C11.3966 0.885459 12.7529 1.22019 14.0018 1.85028L10.7429 5.13854C10.5087 5.09915 10.255 5.06962 10.0013 5.06962C7.84494 5.06962 6.09836 6.83189 6.09836 9.00765Z" fill="black"/>
</svg>
