<svg width="20" height="16" viewBox="0 0 20 16" fill="none" xmlns="http://www.w3.org/2000/svg">
<path fill-rule="evenodd" clip-rule="evenodd" d="M6.09756 8.00012C6.09756 10.1335 7.8439 11.8692 10 11.8692C12.1463 11.8692 13.8927 10.1335 13.8927 8.00012C13.8927 5.85709 12.1463 4.12133 10 4.12133C7.8439 4.12133 6.09756 5.85709 6.09756 8.00012ZM15.7366 2.04618C17.4439 3.36497 18.8976 5.29467 19.9415 7.70921C20.0195 7.89346 20.0195 8.10679 19.9415 8.28133C17.8537 13.1104 14.1366 16.0001 10 16.0001H9.99024C5.86341 16.0001 2.14634 13.1104 0.0585366 8.28133C-0.0195122 8.10679 -0.0195122 7.89346 0.0585366 7.70921C2.14634 2.88012 5.86341 0.00012207 9.99024 0.00012207H10C12.0683 0.00012207 14.0293 0.717698 15.7366 2.04618ZM10.0012 10.4125C11.3378 10.4125 12.4304 9.32647 12.4304 7.99799C12.4304 6.65981 11.3378 5.57375 10.0012 5.57375C9.8841 5.57375 9.76702 5.58344 9.65971 5.60284C9.62068 6.6695 8.74263 7.52284 7.65971 7.52284H7.61093C7.58166 7.67799 7.56215 7.83314 7.56215 7.99799C7.56215 9.32647 8.65483 10.4125 10.0012 10.4125Z" fill="black"/>
</svg>
